<mxfile host="app.diagrams.net" modified="2022-05-10T09:18:37.298Z" agent="5.0 (Windows NT 10.0; Win64; x64) AppleWebKit/537.36 (KHTML, like Gecko) Chrome/101.0.4951.54 Safari/537.36" etag="B8hVZL7_ZrZLDwBIhay3" version="18.0.2" type="github">
  <diagram name="Page-1" id="0783ab3e-0a74-02c8-0abd-f7b4e66b4bec">
    <mxGraphModel dx="1038" dy="513" grid="1" gridSize="10" guides="1" tooltips="1" connect="1" arrows="1" fold="1" page="1" pageScale="1" pageWidth="850" pageHeight="1100" background="none" math="0" shadow="0">
      <root>
        <mxCell id="0" />
        <mxCell id="1" parent="0" />
        <mxCell id="i58EuDIUGKJFv0z2UIi5-1" value="" style="ellipse;html=1;shape=startState;fillColor=#000000;strokeColor=#2B0000;" vertex="1" parent="1">
          <mxGeometry x="105" y="40" width="30" height="30" as="geometry" />
        </mxCell>
        <mxCell id="i58EuDIUGKJFv0z2UIi5-2" value="" style="edgeStyle=orthogonalEdgeStyle;html=1;verticalAlign=bottom;endArrow=open;endSize=8;strokeColor=#000000;rounded=0;entryX=0.5;entryY=0;entryDx=0;entryDy=0;" edge="1" source="i58EuDIUGKJFv0z2UIi5-1" parent="1" target="i58EuDIUGKJFv0z2UIi5-3">
          <mxGeometry relative="1" as="geometry">
            <mxPoint x="175" y="140" as="targetPoint" />
          </mxGeometry>
        </mxCell>
        <mxCell id="i58EuDIUGKJFv0z2UIi5-3" value="Watch Turning on" style="rounded=1;whiteSpace=wrap;html=1;" vertex="1" parent="1">
          <mxGeometry x="60" y="130" width="120" height="30" as="geometry" />
        </mxCell>
        <mxCell id="i58EuDIUGKJFv0z2UIi5-30" style="edgeStyle=orthogonalEdgeStyle;rounded=0;orthogonalLoop=1;jettySize=auto;html=1;exitX=0.5;exitY=1;exitDx=0;exitDy=0;entryX=0.5;entryY=0;entryDx=0;entryDy=0;strokeColor=#000000;" edge="1" parent="1" source="i58EuDIUGKJFv0z2UIi5-4" target="i58EuDIUGKJFv0z2UIi5-28">
          <mxGeometry relative="1" as="geometry">
            <Array as="points">
              <mxPoint x="120" y="380" />
            </Array>
          </mxGeometry>
        </mxCell>
        <mxCell id="i58EuDIUGKJFv0z2UIi5-4" value="App Starting" style="rounded=1;whiteSpace=wrap;html=1;strokeColor=#2B0000;" vertex="1" parent="1">
          <mxGeometry x="60" y="210" width="120" height="40" as="geometry" />
        </mxCell>
        <mxCell id="i58EuDIUGKJFv0z2UIi5-5" value="" style="endArrow=classic;html=1;rounded=0;strokeColor=#000000;exitX=0.5;exitY=1;exitDx=0;exitDy=0;entryX=0.5;entryY=0;entryDx=0;entryDy=0;" edge="1" parent="1" source="i58EuDIUGKJFv0z2UIi5-3" target="i58EuDIUGKJFv0z2UIi5-4">
          <mxGeometry width="50" height="50" relative="1" as="geometry">
            <mxPoint x="400" y="290" as="sourcePoint" />
            <mxPoint x="450" y="240" as="targetPoint" />
            <Array as="points">
              <mxPoint x="120" y="180" />
            </Array>
          </mxGeometry>
        </mxCell>
        <mxCell id="i58EuDIUGKJFv0z2UIi5-31" style="edgeStyle=orthogonalEdgeStyle;rounded=0;orthogonalLoop=1;jettySize=auto;html=1;entryX=0;entryY=0.5;entryDx=0;entryDy=0;strokeColor=#000000;" edge="1" parent="1" source="i58EuDIUGKJFv0z2UIi5-12" target="i58EuDIUGKJFv0z2UIi5-51">
          <mxGeometry relative="1" as="geometry">
            <mxPoint x="365" y="315" as="targetPoint" />
          </mxGeometry>
        </mxCell>
        <mxCell id="i58EuDIUGKJFv0z2UIi5-12" value=": Accelerometer Data" style="rounded=0;whiteSpace=wrap;html=1;strokeColor=#2B0000;" vertex="1" parent="1">
          <mxGeometry x="200" y="290" width="100" height="50" as="geometry" />
        </mxCell>
        <mxCell id="i58EuDIUGKJFv0z2UIi5-22" style="edgeStyle=orthogonalEdgeStyle;rounded=0;orthogonalLoop=1;jettySize=auto;html=1;exitX=1;exitY=0.5;exitDx=0;exitDy=0;entryX=0;entryY=0.5;entryDx=0;entryDy=0;strokeColor=#000000;" edge="1" parent="1" source="i58EuDIUGKJFv0z2UIi5-17" target="i58EuDIUGKJFv0z2UIi5-20">
          <mxGeometry relative="1" as="geometry">
            <Array as="points">
              <mxPoint x="560" y="130" />
              <mxPoint x="560" y="130" />
            </Array>
          </mxGeometry>
        </mxCell>
        <mxCell id="i58EuDIUGKJFv0z2UIi5-25" style="edgeStyle=orthogonalEdgeStyle;rounded=0;orthogonalLoop=1;jettySize=auto;html=1;exitX=0.5;exitY=1;exitDx=0;exitDy=0;strokeColor=#000000;entryX=0.5;entryY=1;entryDx=0;entryDy=0;" edge="1" parent="1" source="i58EuDIUGKJFv0z2UIi5-17" target="i58EuDIUGKJFv0z2UIi5-28">
          <mxGeometry relative="1" as="geometry">
            <mxPoint x="160" y="440" as="targetPoint" />
            <Array as="points">
              <mxPoint x="570" y="440" />
              <mxPoint x="120" y="440" />
            </Array>
          </mxGeometry>
        </mxCell>
        <mxCell id="i58EuDIUGKJFv0z2UIi5-17" value="" style="rhombus;whiteSpace=wrap;html=1;strokeColor=#2B0000;" vertex="1" parent="1">
          <mxGeometry x="560" y="112.5" width="20" height="35" as="geometry" />
        </mxCell>
        <mxCell id="i58EuDIUGKJFv0z2UIi5-20" value="Sending Message to Family or Friends" style="rounded=1;whiteSpace=wrap;html=1;strokeColor=#2B0000;" vertex="1" parent="1">
          <mxGeometry x="700" y="100" width="120" height="60" as="geometry" />
        </mxCell>
        <mxCell id="i58EuDIUGKJFv0z2UIi5-23" value="[Fall Detected]" style="text;html=1;strokeColor=none;fillColor=none;align=center;verticalAlign=middle;whiteSpace=wrap;rounded=0;" vertex="1" parent="1">
          <mxGeometry x="625" y="140" width="60" height="30" as="geometry" />
        </mxCell>
        <mxCell id="i58EuDIUGKJFv0z2UIi5-26" value="[No Fall Detected]" style="text;html=1;strokeColor=none;fillColor=none;align=center;verticalAlign=middle;whiteSpace=wrap;rounded=0;" vertex="1" parent="1">
          <mxGeometry x="500" y="215" width="60" height="30" as="geometry" />
        </mxCell>
        <mxCell id="i58EuDIUGKJFv0z2UIi5-32" style="edgeStyle=orthogonalEdgeStyle;rounded=0;orthogonalLoop=1;jettySize=auto;html=1;entryX=0;entryY=0.5;entryDx=0;entryDy=0;strokeColor=#000000;" edge="1" parent="1" source="i58EuDIUGKJFv0z2UIi5-28" target="i58EuDIUGKJFv0z2UIi5-12">
          <mxGeometry relative="1" as="geometry" />
        </mxCell>
        <mxCell id="i58EuDIUGKJFv0z2UIi5-28" value="Recording Accelerometer Data" style="rounded=1;whiteSpace=wrap;html=1;strokeColor=#2B0000;" vertex="1" parent="1">
          <mxGeometry x="69.67999999999999" y="285" width="100.63" height="60" as="geometry" />
        </mxCell>
        <mxCell id="i58EuDIUGKJFv0z2UIi5-33" value="" style="ellipse;html=1;shape=startState;fillColor=#000000;strokeColor=#2B0000;" vertex="1" parent="1">
          <mxGeometry x="120" y="660" width="30" height="30" as="geometry" />
        </mxCell>
        <mxCell id="i58EuDIUGKJFv0z2UIi5-34" value="" style="edgeStyle=orthogonalEdgeStyle;html=1;verticalAlign=bottom;endArrow=open;endSize=8;strokeColor=#000000;rounded=0;entryX=0.5;entryY=0;entryDx=0;entryDy=0;" edge="1" parent="1" source="i58EuDIUGKJFv0z2UIi5-33" target="i58EuDIUGKJFv0z2UIi5-35">
          <mxGeometry relative="1" as="geometry">
            <mxPoint x="190" y="760" as="targetPoint" />
          </mxGeometry>
        </mxCell>
        <mxCell id="i58EuDIUGKJFv0z2UIi5-35" value="Watch Turning on" style="rounded=1;whiteSpace=wrap;html=1;" vertex="1" parent="1">
          <mxGeometry x="75" y="750" width="120" height="30" as="geometry" />
        </mxCell>
        <mxCell id="i58EuDIUGKJFv0z2UIi5-36" style="edgeStyle=orthogonalEdgeStyle;rounded=0;orthogonalLoop=1;jettySize=auto;html=1;exitX=0.5;exitY=1;exitDx=0;exitDy=0;entryX=0.5;entryY=0;entryDx=0;entryDy=0;strokeColor=#000000;" edge="1" parent="1" source="i58EuDIUGKJFv0z2UIi5-37" target="i58EuDIUGKJFv0z2UIi5-50">
          <mxGeometry relative="1" as="geometry">
            <Array as="points">
              <mxPoint x="135" y="1000" />
            </Array>
          </mxGeometry>
        </mxCell>
        <mxCell id="i58EuDIUGKJFv0z2UIi5-37" value="App Starting" style="rounded=1;whiteSpace=wrap;html=1;strokeColor=#2B0000;" vertex="1" parent="1">
          <mxGeometry x="75" y="830" width="120" height="40" as="geometry" />
        </mxCell>
        <mxCell id="i58EuDIUGKJFv0z2UIi5-38" value="" style="endArrow=classic;html=1;rounded=0;strokeColor=#000000;exitX=0.5;exitY=1;exitDx=0;exitDy=0;entryX=0.5;entryY=0;entryDx=0;entryDy=0;" edge="1" parent="1" source="i58EuDIUGKJFv0z2UIi5-35" target="i58EuDIUGKJFv0z2UIi5-37">
          <mxGeometry width="50" height="50" relative="1" as="geometry">
            <mxPoint x="415" y="910" as="sourcePoint" />
            <mxPoint x="465" y="860" as="targetPoint" />
            <Array as="points">
              <mxPoint x="135" y="800" />
            </Array>
          </mxGeometry>
        </mxCell>
        <mxCell id="i58EuDIUGKJFv0z2UIi5-39" style="edgeStyle=orthogonalEdgeStyle;rounded=0;orthogonalLoop=1;jettySize=auto;html=1;entryX=0;entryY=0.5;entryDx=0;entryDy=0;strokeColor=#000000;" edge="1" parent="1" source="i58EuDIUGKJFv0z2UIi5-40" target="i58EuDIUGKJFv0z2UIi5-62">
          <mxGeometry relative="1" as="geometry">
            <mxPoint x="380" y="935" as="targetPoint" />
          </mxGeometry>
        </mxCell>
        <mxCell id="i58EuDIUGKJFv0z2UIi5-40" value=": Accelerometer Data" style="rounded=0;whiteSpace=wrap;html=1;strokeColor=#2B0000;" vertex="1" parent="1">
          <mxGeometry x="245" y="910" width="100" height="50" as="geometry" />
        </mxCell>
        <mxCell id="i58EuDIUGKJFv0z2UIi5-41" style="edgeStyle=orthogonalEdgeStyle;rounded=0;orthogonalLoop=1;jettySize=auto;html=1;exitX=1;exitY=0.5;exitDx=0;exitDy=0;entryX=0;entryY=0.5;entryDx=0;entryDy=0;strokeColor=#000000;" edge="1" parent="1" source="i58EuDIUGKJFv0z2UIi5-62" target="i58EuDIUGKJFv0z2UIi5-45">
          <mxGeometry relative="1" as="geometry">
            <mxPoint x="500" y="935" as="sourcePoint" />
          </mxGeometry>
        </mxCell>
        <mxCell id="i58EuDIUGKJFv0z2UIi5-43" style="edgeStyle=orthogonalEdgeStyle;rounded=0;orthogonalLoop=1;jettySize=auto;html=1;exitX=1;exitY=0.5;exitDx=0;exitDy=0;entryX=0;entryY=0.5;entryDx=0;entryDy=0;strokeColor=#000000;" edge="1" parent="1" source="i58EuDIUGKJFv0z2UIi5-45" target="i58EuDIUGKJFv0z2UIi5-46">
          <mxGeometry relative="1" as="geometry" />
        </mxCell>
        <mxCell id="i58EuDIUGKJFv0z2UIi5-44" style="edgeStyle=orthogonalEdgeStyle;rounded=0;orthogonalLoop=1;jettySize=auto;html=1;exitX=0.5;exitY=1;exitDx=0;exitDy=0;strokeColor=#000000;entryX=0.5;entryY=1;entryDx=0;entryDy=0;" edge="1" parent="1" source="i58EuDIUGKJFv0z2UIi5-45" target="i58EuDIUGKJFv0z2UIi5-50">
          <mxGeometry relative="1" as="geometry">
            <mxPoint x="175" y="1060" as="targetPoint" />
            <Array as="points">
              <mxPoint x="550" y="1120" />
              <mxPoint x="135" y="1120" />
            </Array>
          </mxGeometry>
        </mxCell>
        <mxCell id="i58EuDIUGKJFv0z2UIi5-45" value="" style="rhombus;whiteSpace=wrap;html=1;strokeColor=#2B0000;" vertex="1" parent="1">
          <mxGeometry x="540" y="917.5" width="20" height="35" as="geometry" />
        </mxCell>
        <mxCell id="i58EuDIUGKJFv0z2UIi5-46" value="Sending Message to Family or Friends" style="rounded=1;whiteSpace=wrap;html=1;strokeColor=#2B0000;" vertex="1" parent="1">
          <mxGeometry x="655" y="905" width="120" height="60" as="geometry" />
        </mxCell>
        <mxCell id="i58EuDIUGKJFv0z2UIi5-47" value="[Fall Detected]" style="text;html=1;strokeColor=none;fillColor=none;align=center;verticalAlign=middle;whiteSpace=wrap;rounded=0;" vertex="1" parent="1">
          <mxGeometry x="565" y="900" width="60" height="30" as="geometry" />
        </mxCell>
        <mxCell id="i58EuDIUGKJFv0z2UIi5-48" value="[No Fall Detected]" style="text;html=1;strokeColor=none;fillColor=none;align=center;verticalAlign=middle;whiteSpace=wrap;rounded=0;" vertex="1" parent="1">
          <mxGeometry x="465" y="1000" width="60" height="30" as="geometry" />
        </mxCell>
        <mxCell id="i58EuDIUGKJFv0z2UIi5-49" style="edgeStyle=orthogonalEdgeStyle;rounded=0;orthogonalLoop=1;jettySize=auto;html=1;entryX=0;entryY=0.5;entryDx=0;entryDy=0;strokeColor=#000000;" edge="1" parent="1" source="i58EuDIUGKJFv0z2UIi5-50" target="i58EuDIUGKJFv0z2UIi5-40">
          <mxGeometry relative="1" as="geometry" />
        </mxCell>
        <mxCell id="i58EuDIUGKJFv0z2UIi5-50" value="Recording Accelerometer Data" style="rounded=1;whiteSpace=wrap;html=1;strokeColor=#2B0000;" vertex="1" parent="1">
          <mxGeometry x="84.67999999999999" y="905" width="100.63" height="60" as="geometry" />
        </mxCell>
        <mxCell id="i58EuDIUGKJFv0z2UIi5-51" value="Send Data to Server" style="rounded=1;whiteSpace=wrap;html=1;strokeColor=#2B0000;" vertex="1" parent="1">
          <mxGeometry x="330" y="285" width="120" height="60" as="geometry" />
        </mxCell>
        <mxCell id="i58EuDIUGKJFv0z2UIi5-52" value=": Accelerometer Data" style="rounded=0;whiteSpace=wrap;html=1;strokeColor=#2B0000;" vertex="1" parent="1">
          <mxGeometry x="340" y="200" width="100" height="50" as="geometry" />
        </mxCell>
        <mxCell id="i58EuDIUGKJFv0z2UIi5-53" value="" style="endArrow=classic;html=1;rounded=0;strokeColor=#000000;exitX=0.5;exitY=0;exitDx=0;exitDy=0;entryX=0.5;entryY=1;entryDx=0;entryDy=0;" edge="1" parent="1" source="i58EuDIUGKJFv0z2UIi5-51" target="i58EuDIUGKJFv0z2UIi5-52">
          <mxGeometry width="50" height="50" relative="1" as="geometry">
            <mxPoint x="360" y="340" as="sourcePoint" />
            <mxPoint x="410" y="290" as="targetPoint" />
          </mxGeometry>
        </mxCell>
        <mxCell id="i58EuDIUGKJFv0z2UIi5-60" style="edgeStyle=orthogonalEdgeStyle;rounded=0;orthogonalLoop=1;jettySize=auto;html=1;entryX=0;entryY=0.5;entryDx=0;entryDy=0;strokeColor=#000000;" edge="1" parent="1" source="i58EuDIUGKJFv0z2UIi5-54" target="i58EuDIUGKJFv0z2UIi5-17">
          <mxGeometry relative="1" as="geometry" />
        </mxCell>
        <mxCell id="i58EuDIUGKJFv0z2UIi5-54" value="External Device Feeds Data to Fitted Model" style="rounded=1;whiteSpace=wrap;html=1;strokeColor=#2B0000;" vertex="1" parent="1">
          <mxGeometry x="330" y="100" width="120" height="60" as="geometry" />
        </mxCell>
        <mxCell id="i58EuDIUGKJFv0z2UIi5-55" value="" style="endArrow=classic;html=1;rounded=0;strokeColor=#000000;exitX=0.5;exitY=0;exitDx=0;exitDy=0;entryX=0.5;entryY=1;entryDx=0;entryDy=0;" edge="1" parent="1" source="i58EuDIUGKJFv0z2UIi5-52" target="i58EuDIUGKJFv0z2UIi5-54">
          <mxGeometry width="50" height="50" relative="1" as="geometry">
            <mxPoint x="360" y="340" as="sourcePoint" />
            <mxPoint x="410" y="290" as="targetPoint" />
          </mxGeometry>
        </mxCell>
        <mxCell id="i58EuDIUGKJFv0z2UIi5-62" value="&lt;span style=&quot;&quot;&gt;External Device Feeds Data to Fitted Model&lt;/span&gt;" style="rounded=1;whiteSpace=wrap;html=1;strokeColor=#2B0000;" vertex="1" parent="1">
          <mxGeometry x="380" y="905" width="120" height="60" as="geometry" />
        </mxCell>
      </root>
    </mxGraphModel>
  </diagram>
</mxfile>
